<svg width="20" height="20" viewBox="0 0 20 20" fill="none" xmlns="http://www.w3.org/2000/svg">
<path d="M17.9419 17.0578L14.0302 13.1469C15.1639 11.7857 15.7293 10.0398 15.6086 8.27244C15.488 6.50506 14.6906 4.85223 13.3823 3.65779C12.074 2.46334 10.3557 1.81926 8.58462 1.85951C6.81357 1.89976 5.12622 2.62125 3.87358 3.87389C2.62094 5.12653 1.89945 6.81388 1.8592 8.58492C1.81895 10.356 2.46304 12.0744 3.65748 13.3826C4.85192 14.6909 6.50475 15.4883 8.27214 15.6089C10.0395 15.7296 11.7854 15.1642 13.1466 14.0305L17.0575 17.9422C17.1156 18.0003 17.1845 18.0463 17.2604 18.0777C17.3363 18.1092 17.4176 18.1253 17.4997 18.1253C17.5818 18.1253 17.6631 18.1092 17.739 18.0777C17.8149 18.0463 17.8838 18.0003 17.9419 17.9422C17.9999 17.8841 18.046 17.8152 18.0774 17.7393C18.1089 17.6634 18.125 17.5821 18.125 17.5C18.125 17.4179 18.1089 17.3366 18.0774 17.2607C18.046 17.1848 17.9999 17.1159 17.9419 17.0578ZM3.12469 8.75C3.12469 7.63748 3.45459 6.54994 4.07267 5.62491C4.69076 4.69989 5.56926 3.97892 6.5971 3.55317C7.62493 3.12743 8.75593 3.01604 9.84707 3.23308C10.9382 3.45012 11.9405 3.98585 12.7272 4.77252C13.5138 5.55919 14.0496 6.56147 14.2666 7.65261C14.4837 8.74376 14.3723 9.87475 13.9465 10.9026C13.5208 11.9304 12.7998 12.8089 11.8748 13.427C10.9497 14.0451 9.86221 14.375 8.74969 14.375C7.25836 14.3733 5.82858 13.7802 4.77404 12.7256C3.71951 11.6711 3.12634 10.2413 3.12469 8.75Z" fill="currentColor"/>
</svg>
