<svg width="16" height="16" viewBox="0 0 16 16" fill="none" xmlns="http://www.w3.org/2000/svg">
<g clip-path="url(#clip0_57_166)">
<path d="M7.99935 12C5.79021 12 3.99935 10.2092 3.99935 8.00002C3.99935 5.79088 5.79021 4.00002 7.99935 4.00002C10.2085 4.00002 11.9993 5.79088 11.9993 8.00002C11.9993 10.2092 10.2085 12 7.99935 12ZM7.33268 0.666687H8.66602V2.66669H7.33268V0.666687ZM7.33268 13.3334H8.66602V15.3334H7.33268V13.3334ZM2.3425 3.28597L3.2853 2.34317L4.69952 3.75738L3.75671 4.70019L2.3425 3.28597ZM11.2991 12.2427L12.242 11.2998L13.6562 12.7141L12.7134 13.6569L11.2991 12.2427ZM12.7134 2.34317L13.6562 3.28597L12.242 4.70019L11.2991 3.75738L12.7134 2.34317ZM3.75671 11.2998L4.69952 12.2427L3.2853 13.6569L2.3425 12.7141L3.75671 11.2998ZM15.3327 7.33335V8.66669H13.3327V7.33335H15.3327ZM2.66602 7.33335V8.66669H0.666016V7.33335H2.66602Z" fill="#F6F6F6"/>
</g>
<defs>
<clipPath id="clip0_57_166">
<rect width="16" height="16" fill="white"/>
</clipPath>
</defs>
</svg>
