<svg width="96" height="24" viewBox="0 0 96 24" fill="none" xmlns="http://www.w3.org/2000/svg">
<path d="M9.57281 20.1284C9.81781 20.2592 10.1253 20.2584 10.3703 20.1275C17.047 16.5409 17.5211 9.53336 17.5153 7.54086C17.5147 7.38072 17.4674 7.22424 17.3791 7.09058C17.2909 6.95693 17.1656 6.8519 17.0186 6.78836L10.3103 3.81669C10.2036 3.76964 10.0881 3.7454 9.97147 3.74555C9.8548 3.74569 9.73945 3.77021 9.63281 3.81753L2.97114 6.78919C2.8263 6.85277 2.7028 6.95663 2.61533 7.08842C2.52786 7.22021 2.48013 7.37437 2.47781 7.53253C2.44947 9.51503 2.84864 16.5375 9.57281 20.1284ZM7.22781 10.5775L9.13864 12.4884L12.7161 8.91086L13.8945 10.0892L9.13864 14.845L6.04947 11.7559L7.22781 10.5775Z" fill="white"/>
<path d="M30.3788 17.698C29.0348 17.698 28.0388 17.386 27.3908 16.762C26.7428 16.138 26.4188 15.196 26.4188 13.936V11.002H24.7628V8.644H26.4188V6.07H29.6228V8.644H32.1428V11.002H29.6228V13.828C29.6228 14.692 30.0608 15.124 30.9368 15.124C31.0808 15.124 31.2368 15.112 31.4048 15.088C31.5848 15.052 31.7828 15.004 31.9988 14.944L32.4308 17.248C32.1548 17.392 31.8308 17.5 31.4588 17.572C31.0868 17.656 30.7268 17.698 30.3788 17.698ZM33.3989 17.5V8.644H36.5129V10.138C36.9209 9.118 37.8029 8.56 39.1589 8.464L40.0409 8.392L40.2209 11.092L38.4749 11.254C37.8389 11.314 37.3769 11.494 37.0889 11.794C36.8009 12.082 36.6569 12.514 36.6569 13.09V17.5H33.3989ZM44.5156 17.698C43.3636 17.698 42.5116 17.386 41.9596 16.762C41.4196 16.126 41.1496 15.16 41.1496 13.864V8.644H44.3536V13.954C44.3536 14.818 44.7256 15.25 45.4696 15.25C45.9016 15.25 46.2556 15.094 46.5316 14.782C46.8076 14.47 46.9456 14.056 46.9456 13.54V8.644H50.1496V17.5H47.0176V16.402C46.4416 17.266 45.6076 17.698 44.5156 17.698ZM54.6241 17.5L50.7361 8.644H54.1021L56.0281 13.666L58.0621 8.644H61.2121L57.2521 17.5H54.6241ZM66.3655 17.698C65.2855 17.698 64.3495 17.512 63.5575 17.14C62.7775 16.756 62.1775 16.216 61.7575 15.52C61.3375 14.824 61.1275 14.002 61.1275 13.054C61.1275 12.154 61.3255 11.356 61.7215 10.66C62.1295 9.964 62.6815 9.424 63.3775 9.04C64.0855 8.644 64.8895 8.446 65.7895 8.446C66.6775 8.446 67.4455 8.632 68.0935 9.004C68.7535 9.376 69.2575 9.91 69.6055 10.606C69.9655 11.29 70.1455 12.094 70.1455 13.018V13.72H64.1875C64.2955 14.296 64.5355 14.71 64.9075 14.962C65.2795 15.214 65.7955 15.34 66.4555 15.34C66.9115 15.34 67.3855 15.274 67.8775 15.142C68.3815 14.998 68.8255 14.794 69.2095 14.53L70.0015 16.636C69.5455 16.96 68.9875 17.218 68.3275 17.41C67.6675 17.602 67.0135 17.698 66.3655 17.698ZM65.9335 10.516C65.4535 10.516 65.0575 10.66 64.7455 10.948C64.4455 11.236 64.2535 11.656 64.1695 12.208H67.5175C67.4815 11.644 67.3255 11.224 67.0495 10.948C66.7855 10.66 66.4135 10.516 65.9335 10.516ZM71.5258 17.5V8.644H74.6398V10.138C75.0478 9.118 75.9298 8.56 77.2858 8.464L78.1678 8.392L78.3478 11.092L76.6018 11.254C75.9658 11.314 75.5038 11.494 75.2158 11.794C74.9278 12.082 74.7838 12.514 74.7838 13.09V17.5H71.5258ZM79.2405 7.114V4.216H82.6065V7.114H79.2405ZM79.3305 17.5V8.644H82.5345V17.5H79.3305ZM91.377 7.114V4.216H94.725V7.114H91.377ZM85.149 17.5V11.002H83.475V8.644H85.149C85.209 7.396 85.611 6.46 86.355 5.836C87.099 5.2 88.227 4.84 89.739 4.756L90.657 4.72L90.783 7.006L90.171 7.042C89.475 7.09 88.995 7.216 88.731 7.42C88.479 7.624 88.353 7.942 88.353 8.374V8.644H94.653V17.5H91.449V11.002H88.353V17.5H85.149Z" fill="white"/>
</svg>
